<svg width="24" height="24" viewBox="0 0 24 24" fill="none" xmlns="http://www.w3.org/2000/svg">
  <rect width="24" height="24" rx="6" fill="#FF0000"/>
  <path d="M17.5 8.5C17.5 8.5 17.25 7.25 16.5 6.5C15.5 6 12 6 12 6C12 6 8.5 6 7.5 6.5C6.75 7.25 6.5 8.5 6.5 8.5C6.5 8.5 6 10 6 12C6 14 6.5 15.5 6.5 15.5C6.5 15.5 6.75 16.75 7.5 17.5C8.5 18 12 18 12 18C12 18 15.5 18 16.5 17.5C17.25 16.75 17.5 15.5 17.5 15.5C17.5 15.5 18 14 18 12C18 10 17.5 8.5 17.5 8.5ZM10.5 14.5V9.5L15 12L10.5 14.5Z" fill="white"/>
</svg>
